<?xml version="1.0" encoding="UTF-8"?>
<svg width="381mm" height="381mm" version="1.1" viewBox="0 0 381 381" xml:space="preserve" xmlns="http://www.w3.org/2000/svg" xmlns:xlink="http://www.w3.org/1999/xlink"><g transform="matrix(.26458 0 0 .26458 -386.29 0)" fill-rule="evenodd"><path transform="matrix(1.3333 0 0 -1.3333 2326.7 871.29)" d="m0 0-109.99-201.2-110.05 201.2-201.2 110.05 201.2 110.05 110.05 201.2 109.99-201.2 201.25-110.05zm74.576 294.62-184.56 337.46-184.57-337.46-337.46-184.56 337.46-184.58 184.57-337.46 184.56 337.46 337.4 184.58z"/><path transform="matrix(1.3333 0 0 -1.3333 2294.1 735.07)" d="m0 0-42.793-74.117-42.793-74.113-42.794 74.113-42.794 74.117 85.588 148.23z"/><path transform="matrix(1.3333 0 0 -1.3333 1745.5 902.13)" d="m0 0h-136.13l208.64-114.11 118.54-216.73v136.13l-70.408 128.73z"/><path transform="matrix(1.3333 0 0 -1.3333 2356.2 1156.6)" d="m0 0v-136.13l114.12 208.64 216.73 118.54h-136.13l-128.73-70.41z"/><path transform="matrix(1.3333 0 0 -1.3333 2002.7 293.37)" d="m0 0v136.13l-114.11-208.64-216.73-118.54h136.13l128.73 70.41z"/><path transform="matrix(1.3333 0 0 -1.3333 2612 547.87)" d="m0 0h136.13l-208.64 114.11-118.54 216.73v-136.13l70.41-128.73z"/></g></svg>
