<?xml version="1.0" encoding="UTF-8"?>
<svg width="368.3mm" height="368.32mm" version="1.1" viewBox="0 0 368.3 368.32" xml:space="preserve" xmlns="http://www.w3.org/2000/svg" xmlns:xlink="http://www.w3.org/1999/xlink"><g transform="matrix(.26458 0 0 .26458 -398.99 -4.9867)" fill="#231f20"><path transform="matrix(1.3333 0 0 -1.3333 1957.9 468.8)" d="m0 0-337.46-184.56 337.46-184.57 184.57-337.46 184.56 337.46 337.4 184.57-337.4 184.56-184.56 337.46zm74.52-294.62-201.2 110.05 201.2 110.05 110.05 201.2 109.99-201.2 201.25-110.05-201.25-110.05-109.99-201.2z"/><path transform="matrix(1.3333 0 0 -1.3333 2318.1 725.4)" d="m0 0-42.793-74.117-42.793-74.114-42.794 74.114-42.794 74.117 85.588 148.23z" fill-rule="evenodd"/><path transform="matrix(1.3333 0 0 -1.3333 1787.9 880.46)" d="m0 0h-136.13l208.64-114.11 118.54-216.73v136.13l-70.408 128.73z" fill-rule="evenodd"/><path transform="matrix(1.3333 0 0 -1.3333 2369.3 1129.6)" d="m0 0v-136.13l114.12 208.64 216.73 118.54h-136.13l-128.73-70.41z" fill-rule="evenodd"/><path transform="matrix(1.3333 0 0 -1.3333 2038.4 297.95)" d="m0 0v136.13l-114.11-208.64-216.73-118.54h136.13l128.73 70.41z" fill-rule="evenodd"/><path transform="matrix(1.3333 0 0 -1.3333 2621.1 551.33)" d="m0 0h136.13l-208.64 114.11-118.54 216.73v-136.13l70.41-128.73z" fill-rule="evenodd"/></g></svg>
