<?xml version="1.0" encoding="UTF-8"?>
<svg width="381mm" height="381mm" version="1.1" viewBox="0 0 381 381" xml:space="preserve" xmlns="http://www.w3.org/2000/svg" xmlns:xlink="http://www.w3.org/1999/xlink"><defs><clipPath id="b"><path transform="translate(-540.71 -177.01)" d="m0 1080h1080v-1080h-1080z"/></clipPath><clipPath id="a"><path transform="translate(-542.45 -911.89)" d="m0 1080h1080v-1080h-1080z"/></clipPath></defs><g transform="matrix(.26458 0 0 .26458 1.2988e-5 0)" fill-rule="evenodd"><path transform="matrix(1.3333 0 0 -1.3333 720.94 1204)" d="m0 0c119.48 119.36 241.79 241.55 363.3 362.94-21.458 21.495-43.921 44.007-68.853 68.999-98.643-98.716-197.42-197.54-295.49-295.67-99.117 97.123-198.91 194.93-294.52 288.6-22.856-20.646-46.266-41.784-71.053-64.175 123.54-121.54 245.87-241.9 366.62-360.7m-2.579-159.14c-172.19 172.14-347.01 346.89-524.09 523.92 48.979 47.667 98.943 96.305 150.3 146.32-43.891 43.501-85.285 84.529-125.8 124.68 26.277 26.061 51.999 51.577 78.533 77.886 138.26-138.83 278.6-279.76 420.4-422.15 143.22 143.78 283.91 285.04 425.26 426.95 27.665-28.476 52.699-54.23 79.398-81.694-40.943-39.759-83.126-80.721-126.06-122.42 52.472-51.223 101.9-99.472 149.9-146.32-178.64-178.41-353.78-353.34-527.84-527.18" clip-path="url(#b)"/><path transform="matrix(1.3333 0 0 -1.3333 723.26 224.15)" d="m0 0c-62.749-63.956-120.2-122.52-178.27-181.7-26.658 28.173-51.639 54.589-76.293 80.635 82.305 82.316 167.14 167.14 251.31 251.31 84.208-84.448 168.94-169.41 254.31-255.01-24.212-23.466-49.912-48.382-76.664-74.304-56.293 57.805-113.83 116.9-174.39 179.07" clip-path="url(#a)"/></g></svg>
